<svg id="Layer_1" data-name="Layer 1" xmlns="http://www.w3.org/2000/svg" viewBox="0 0 658.11 305.08"><defs><style>.cls-1{fill:#ed1b2f;}.cls-2{fill:#5ec4b6;}.cls-3{fill:#bef5c7;}.cls-4{fill:#18a7a9;}.cls-5{fill:#6bcdb8;}.cls-6{fill:#004f60;}</style></defs><path class="cls-1" d="M82,66.84a8.66,8.66,0,0,0,12.13,0,8.52,8.52,0,0,0,2.48-6.13,8.26,8.26,0,0,0-2.48-6.06,8.49,8.49,0,0,0-12.13,0,8.26,8.26,0,0,0-2.48,6.06A8.42,8.42,0,0,0,82,66.84m19-18.46a16.12,16.12,0,0,1,5.35,12.33A16.33,16.33,0,0,1,101,73.1a19.17,19.17,0,0,1-25.89,0,16.53,16.53,0,0,1-5.29-12.39,16.31,16.31,0,0,1,5.29-12.33,19,19,0,0,1,25.89,0" transform="translate(202.26 51.37)"/><path class="cls-1" d="M249.93,68.73a5.29,5.29,0,0,1,7.5,0,5.1,5.1,0,0,1,0,7.44,5.27,5.27,0,0,1-7.5,0,5.2,5.2,0,0,1,0-7.44" transform="translate(202.26 51.37)"/><path class="cls-2" d="M196.83,30.45A5.51,5.51,0,1,1,191.28,36a5.5,5.5,0,0,1,5.55-5.54" transform="translate(202.26 51.37)"/><path class="cls-1" d="M196.6,46.51a10.18,10.18,0,0,1-4.77-1.19V77.15h9.61V45.28a10.14,10.14,0,0,1-4.84,1.23" transform="translate(202.26 51.37)"/><path class="cls-1" d="M50.17,43.62A14.59,14.59,0,0,0,39.57,48a14.57,14.57,0,0,0-25,9.89V77.15h9.79V57.3a5.15,5.15,0,0,1,10.29-.14v20h9.8V57.21a5.15,5.15,0,0,1,10.3,0V77.15h9.71l.11-19A14.67,14.67,0,0,0,50.17,43.62" transform="translate(202.26 51.37)"/><path class="cls-1" d="M111.61,77.15V44.25h9.81v4.13c1.37-2.87,5-4.76,9.52-4.76,8,0,12.63,5,12.63,13.55v20h-9.78V58.36c0-3.84-2.15-6.19-6-6.19a6.18,6.18,0,0,0-6.37,6.52V77.15Z" transform="translate(202.26 51.37)"/><path class="cls-1" d="M148.66,60.73v0h0" transform="translate(202.26 51.37)"/><path class="cls-1" d="M160.79,66.58a8,8,0,0,1-2.41-5.87,7.71,7.71,0,0,1,2.41-5.8,8,8,0,0,1,5.94-2.42,8.21,8.21,0,0,1,6.06,2.42,7.59,7.59,0,0,1,2.55,5.8,7.85,7.85,0,0,1-2.55,5.87,8.39,8.39,0,0,1-6.06,2.35,8.21,8.21,0,0,1-5.94-2.35m13.88-36.13V46.13a17,17,0,0,0-8.91-2.51h-.4a17.13,17.13,0,0,0-16.7,17.09v.08a17.08,17.08,0,0,0,16.43,16.92h.67a17.08,17.08,0,0,0,8.91-2.49v1.91h9.8V30.45Z" transform="translate(202.26 51.37)"/><path class="cls-1" d="M206.77,60.73s0,0,0,.07,0,0,0-.08h0" transform="translate(202.26 51.37)"/><path class="cls-1" d="M231.41,66.58a8.39,8.39,0,0,1-6.06,2.35,8.21,8.21,0,0,1-5.94-2.35A8,8,0,0,1,217,60.71a7.71,7.71,0,0,1,2.41-5.8,8,8,0,0,1,5.94-2.42,8.21,8.21,0,0,1,6.06,2.42,7.59,7.59,0,0,1,2.54,5.8,7.84,7.84,0,0,1-2.54,5.87m1.86-22.33v1.87a16.91,16.91,0,0,0-8.88-2.5H224a17.12,17.12,0,0,0-16.7,17.09v.08A17.07,17.07,0,0,0,224,77.72h.43a17,17,0,0,0,8.88-2.48v1.9h9.82V44.25Z" transform="translate(202.26 51.37)"/><path class="cls-3" d="M-56,184.82l0-.06L-202.26,100.3v82.32l110.63,63.87,0,0a35.51,35.51,0,0,0,19.13,5.6,35.65,35.65,0,0,0,35.64-35.65A35.61,35.61,0,0,0-56,184.82" transform="translate(202.26 51.37)"/><path class="cls-4" d="M-36.84,66.78V-15.73A35.64,35.64,0,0,0-72.48-51.37a35.65,35.65,0,0,0-35.65,35.64V46.18l-94.13,54.35v82.32L-56,98.4v0A35.62,35.62,0,0,0-36.84,66.78" transform="translate(202.26 51.37)"/><polygon class="cls-5" points="0 151.9 0 233.99 0.19 234.1 71.48 192.95 0.19 151.79 0 151.9"/><path class="cls-6" d="M435,221.29h20.83V106H435ZM375.2,155c13.15,0,22.87,9.87,22.87,24.44,0,15.19-10,24.91-22.87,24.91-13,0-22.4-10.5-22.4-24.75,0-13.63,8.61-24.6,22.4-24.6m21.93,66.27H418V138.11H397.13v9.08c-7.52-7.52-16.14-11.28-26.16-11.28-21.62,0-39.16,17.86-39.16,43.86,0,25.54,18.48,43.71,39.63,43.71,10.49,0,18.33-3.76,25.69-11ZM294.57,138.11H283.92V156h10.65v65.33h20.84V156h12.37V138.11H315.41V107.4H294.57ZM263.73,103.8c-7.21,0-13.32,5.48-13.32,12.69,0,7.67,5.64,14.41,13.32,14.41A13.3,13.3,0,0,0,277,117.58a13.5,13.5,0,0,0-13.31-13.78M253.39,221.29h20.83V138.11H253.39ZM193.65,155c13.78,0,22.71,10.34,22.71,23.82,0,14.09-9.56,23.33-22.4,23.33-13,0-22.87-9.71-22.87-23.49,0-12.85,8.77-23.66,22.56-23.66m42.45-16.91H215.26v9.08c-7.83-7.36-16-11.28-26.31-11.28-21.15,0-38.85,16.92-38.85,42.61,0,24.91,17.54,42.77,39.94,42.77,10.81,0,18.33-3.61,25.22-10.34,0,7.83-.15,13.47-5.17,18.17-3.76,3.45-10,5.48-17.7,5.48-8.77,0-15-2.19-19.27-7.2h-23c5.64,17.38,20.21,26.31,43.08,26.31,12.69,0,22.71-3,30.23-9.24,9.56-8.14,12.69-18.95,12.69-35.09ZM127.45,103.8c-7.21,0-13.32,5.48-13.32,12.69,0,7.67,5.64,14.41,13.32,14.41a13.3,13.3,0,0,0,13.31-13.32,13.5,13.5,0,0,0-13.31-13.78M117.11,221.29h20.83V138.11H117.11ZM57.05,155c13.16,0,22.87,9.87,22.87,24.44,0,15.19-10,24.91-22.87,24.91s-22.4-10.5-22.4-24.75c0-13.63,8.62-24.6,22.4-24.6M79,221.29H99.82V106H79v41.2c-7.52-7.52-16.13-11.28-26.16-11.28-21.62,0-39.16,17.86-39.16,43.86,0,25.54,18.48,43.71,39.63,43.71,10.5,0,18.33-3.76,25.69-11Z" transform="translate(202.26 51.37)"/></svg>